# xmcd CD database file
#
# Track frame offsets:
#	150
#	14656
#	30718
#	45984
#	59111
#	73257
#	87083
#	99454
#	115343
#	130944
#	144637
#	156383
#	168419
#	180782
#	193262
#
# Disc length: 2775 seconds
#
# Revision: 0
# Processed by: cddbd v1.5.1PL2 Copyright (c) Steve Scherf et al.
# Submitted via: CDex 1.51
#
DISCID=d60ad50f
DTITLE=Various Artist - 想い出のフォーク＆ポップス大全集 Disc1
DYEAR=2003
DGENRE=JPop
TTITLE0=加藤和彦と北山修 - あの素晴らしい愛をもう一度
TTITLE1=はしだのりひことシューベルツ - 風
TTITLE2=ザ・フォーク・クルセダーズ - 帰って来たヨッパライ
TTITLE3=はしだのりひことクライマックス - 花嫁
TTITLE4=トワ・エ・モワ - 或る日突然
TTITLE5=ザ・フォーク・クルセダーズ - 青年は荒野をめざす
TTITLE6=ザ・リガニーズ - 海は恋してる
TTITLE7=フォー・セインツ - 小さな日記
TTITLE8=ザ・ワイルド・ワンズ - 想い出の渚
TTITLE9=ザ・サベージ - いつまでもいつまでも
TTITLE10=ザ・ランチャーズ - 真冬の帰り道
TTITLE11=ザ・ゴールデン・カップス - 長い髪の少女
TTITLE12=市川染五郎 - 野バラ咲く路
TTITLE13=ブロードサイド・フォー - 若者たち
TTITLE14=ジェリー藤尾 - 遠くへ行きたい
EXTD=YEAR: 2003
EXTT0=
EXTT1=
EXTT2=
EXTT3=
EXTT4=
EXTT5=
EXTT6=
EXTT7=
EXTT8=
EXTT9=
EXTT10=
EXTT11=
EXTT12=
EXTT13=
EXTT14=
PLAYORDER=
